<?xml version="1.0" encoding="utf-8"?>
<!-- Generator: Adobe Illustrator 16.0.0, SVG Export Plug-In . SVG Version: 6.00 Build 0)  -->
<!DOCTYPE svg PUBLIC "-//W3C//DTD SVG 1.1//EN" "http://www.w3.org/Graphics/SVG/1.1/DTD/svg11.dtd">
<svg version="1.1" id="Layer_1" xmlns="http://www.w3.org/2000/svg" xmlns:xlink="http://www.w3.org/1999/xlink" x="0px" y="0px"
	 width="292.875px" height="115.333px" viewBox="0 0 292.875 115.333" enable-background="new 0 0 292.875 115.333"
	 xml:space="preserve">
<g>
	<g>
		<path fill-rule="evenodd" clip-rule="evenodd" fill="#FFFFFF" d="M29.467,3.774c11.271,0,32.456,0,43.726,0
			c45.779,0,45.811,54.683,0.079,54.683c-5.574,0-13.701,0-19.273,0c-4.791,0-11.503,0-16.292,0c-3.546,0-6.851,0.3-8.458,1.74
			c-1.336,1.199-1.582,1.576-26.859,26.979c17.5-41.275,18.466-44.004,18.779-44.509c2.11-3.436,3.282-3.352,5.823-3.352
			c9.536,0,36.667,0,46.202,0c14.864,0,14.864-16.347,0-16.347c-18.99,0-43.437,0-62.428,0c11.023-14.24,11.023-14.24,11.023-14.24
			C25.38,3.774,26.929,3.774,29.467,3.774z"/>
	</g>
</g>
<g>
	<path fill="#FFFFFF" d="M118.095,19.133V9.472h52.651v9.662h-20.083V84.92h-12.376V19.133H118.095z"/>
	<path fill="#FFFFFF" d="M187.464,25.104v10.422c3.835-7.599,9.806-11.399,17.912-11.399v12.81h-3.147
		c-4.85,0-8.522,1.231-11.02,3.691c-2.496,2.461-3.745,6.731-3.745,12.81V84.92h-12.376V25.104H187.464z"/>
	<path fill="#FFFFFF" d="M222.745,9.254c0,2.244-0.76,4.125-2.28,5.645c-1.52,1.52-3.384,2.28-5.591,2.28
		c-2.208,0-4.07-0.76-5.591-2.28c-1.52-1.52-2.279-3.401-2.279-5.645c0-2.242,0.76-4.125,2.279-5.645
		c1.521-1.52,3.383-2.28,5.591-2.28c2.207,0,4.071,0.76,5.591,2.28C221.985,5.129,222.745,7.012,222.745,9.254z M208.632,84.92
		V25.104h12.376V84.92H208.632z"/>
	<path fill="#FFFFFF" d="M262.368,24.127c8.033,0,14.727,2.841,20.083,8.522c5.355,5.683,8.034,13.064,8.034,22.146
		c0,9.083-2.697,16.538-8.088,22.363c-5.393,5.826-12.069,8.738-20.029,8.738c-4.705,0-8.831-1.103-12.376-3.311
		c-3.547-2.207-6.369-5.156-8.468-8.848v39.624h-12.376V25.104h12.376v10.639c2.025-3.474,4.831-6.278,8.413-8.414
		C253.521,25.196,257.663,24.127,262.368,24.127z M272.464,69.559c3.618-3.727,5.428-8.666,5.428-14.818
		c0-6.15-1.791-11-5.373-14.547c-3.583-3.545-7.854-5.319-12.811-5.319c-4.958,0-9.228,1.81-12.81,5.428
		c-3.583,3.62-5.374,8.505-5.374,14.656c0,6.152,1.791,11.056,5.374,14.709c3.582,3.655,7.833,5.482,12.756,5.482
		C264.575,75.15,268.844,73.288,272.464,69.559z"/>
</g>
</svg>
