<?xml version="1.0" encoding="utf-8"?>
<!-- Generator: Adobe Illustrator 16.0.0, SVG Export Plug-In . SVG Version: 6.00 Build 0)  -->
<!DOCTYPE svg PUBLIC "-//W3C//DTD SVG 1.1//EN" "http://www.w3.org/Graphics/SVG/1.1/DTD/svg11.dtd">
<svg version="1.1" id="vector_logo_1_" xmlns="http://www.w3.org/2000/svg" xmlns:xlink="http://www.w3.org/1999/xlink" x="0px"
	 y="0px" width="216px" height="171.28px" viewBox="0 0 216 171.28" enable-background="new 0 0 216 171.28" xml:space="preserve">
<g id="vector_logo">
	<path fill-rule="evenodd" clip-rule="evenodd" fill="#FFFFFF" d="M145.532,112.314c93.894,0,93.829-112.271-0.16-112.271H55.598
		c-5.214,0-8.393,0-15.768,10.17c0,0,0,0-22.634,29.24h128.177c30.518,0,30.518,33.562,0,33.562H50.511
		c-5.214,0-7.622-0.171-11.958,6.881C37.914,80.937,35.93,86.539,0,171.28c51.896-52.155,52.402-52.931,55.149-55.392
		c3.299-2.956,10.081-3.574,17.362-3.574H145.532z M72.417,125.984h16.56v41.125h7.109v-41.125h16.641v-5.072h-40.31V125.984z
		 M162.241,167.109h7.027v-46.197h-7.027V167.109z M142.048,145.107v-0.206c5.735-1.645,10.259-5.688,10.259-11.789
		c0-3.564-1.535-6.717-4.281-8.773c-3.393-2.604-8.24-3.77-15.752-3.77c-4.847,0-9.937,0.343-13.49,0.959v45.581h7.027v-20.015
		h6.624c6.382,0.206,9.29,2.604,10.905,8.979c1.535,5.758,2.747,9.732,3.635,11.035h7.271c-1.131-1.782-2.423-6.237-4.2-12.681
		C148.752,149.631,146.248,146.341,142.048,145.107z M133,142.571h-7.189V125.71c1.131-0.274,3.555-0.549,6.947-0.549
		c7.432,0.068,12.521,2.674,12.521,8.637C145.278,139.075,140.513,142.571,133,142.571z M210.303,124.407
		c-3.23-2.468-8.32-3.838-15.267-3.838c-5.655,0-10.098,0.411-13.49,0.891v45.649h7.027v-18.507
		c1.616,0.343,3.555,0.411,5.654,0.411c6.867,0,12.925-1.713,16.642-5.071c2.746-2.399,4.2-5.689,4.2-9.87
		C215.069,129.959,213.292,126.601,210.303,124.407z M194.39,144.216c-2.343,0-4.281-0.137-5.816-0.479v-17.958
		c1.212-0.274,3.555-0.479,6.624-0.479c7.755,0,12.844,2.947,12.844,9.047C208.041,140.721,202.871,144.216,194.39,144.216z"/>
</g>
</svg>
